# xmcd
#
# Track frame offsets:
#	150
#	17822
#	29959
#	42998
#	64765
#	78663
#	95452
#	112717
#	130119
#	145964
#
# Disc length: 2176 seconds
#
# Revision: 1
# Processed by: cddbd v1.5.1PL0 Copyright (c) Steve Scherf et al.
# Submitted via: audiograbber 1.82.02
#
DISCID=87087e0a
DTITLE=Diane Chase - The Ride
DYEAR=1900
DGENRE=
TTITLE0=The Ride
TTITLE1=I Hate Love
TTITLE2=Walkin' Back To You
TTITLE3=Woman I Wanna Be
TTITLE4=Soiree In The Kitchen
TTITLE5=Hearts Don't Think Like That
TTITLE6=Way Back When
TTITLE7=Harper Valley PTA
TTITLE8=All In Your Mind
TTITLE9=Time To Make A Life
EXTD=
EXTT0=
EXTT1=
EXTT2=
EXTT3=
EXTT4=
EXTT5=
EXTT6=
EXTT7=
EXTT8=
EXTT9=
PLAYORDER=
